<?xml version="1.0" encoding="UTF-8" standalone="no"?>
<!-- Created with Inkscape (http://www.inkscape.org/) -->

<svg
   xmlns:dc="http://purl.org/dc/elements/1.1/"
   xmlns:cc="http://creativecommons.org/ns#"
   xmlns:rdf="http://www.w3.org/1999/02/22-rdf-syntax-ns#"
   xmlns:svg="http://www.w3.org/2000/svg"
   xmlns="http://www.w3.org/2000/svg"
   version="1.1"
   width="300"
   height="300"
   id="svg3945">
  <defs
     id="defs3947" />
  <metadata
     id="metadata3950">
    <rdf:RDF>
      <cc:Work
         rdf:about="">
        <dc:format>image/svg+xml</dc:format>
        <dc:type
           rdf:resource="http://purl.org/dc/dcmitype/StillImage" />
        <dc:title></dc:title>
      </cc:Work>
    </rdf:RDF>
  </metadata>
  <g
     transform="translate(0,-752.36218)"
     id="layer1">
    <g
       transform="matrix(2.4171512,0,0,2.3942833,-522.51663,-1261.5689)"
       id="g3962">
      <path
         d="m 217.50037,966.29086 124.99926,0 0,-125.00022 -124.99926,0 0,125.00022 z"
         id="path444"
         style="fill:#f8a021;fill-opacity:1;fill-rule:nonzero;stroke:none" />
      <path
         d="m 236.29113,860.29354 0,16.71248 c 38.98939,0.0239 70.68324,31.77285 70.70958,70.80055 l 16.75078,0 c -0.012,-24.13492 -9.81678,-45.97127 -25.66011,-61.84573 -15.85052,-15.85052 -37.68927,-25.64336 -61.80025,-25.6673 z m -0.0311,29.76161 0,16.71248 c 10.90621,0 21.22341,4.28586 28.94515,12.01957 7.71934,7.70977 11.98605,18.02937 12.00281,28.97149 l 0.005,0 0,0.0479 16.77712,0 c -0.012,-15.92236 -6.48387,-30.33627 -16.94234,-40.79953 -10.46109,-10.46325 -24.8726,-16.95191 -40.78777,-16.95191 z m 3.39757,54.25569 c 0,0 0,0 0,-0.0239 -0.002,0 -0.002,0 -0.002,0 l 0.002,0.0239 z m 16.42755,-16.37727 0,0 c 0.002,0 0.002,0 0.002,0 l -0.002,0 z m 0,0 c 2.11898,2.13096 3.40714,4.98023 3.41432,8.18864 -0.007,3.18447 -1.29534,6.05767 -3.40714,8.16469 l -0.007,0.0239 c -2.1142,2.10702 -5.00656,3.37602 -8.21976,3.37602 -3.21081,0 -6.0912,-1.29294 -8.20779,-3.39996 -2.10702,-2.10702 -3.40714,-4.98022 -3.40714,-8.16469 0,-3.20841 1.30012,-6.08162 3.40714,-8.18864 l 0,0 c 2.11659,-2.10701 4.99698,-3.39996 8.20779,-3.39996 3.2132,0 6.10077,1.29295 8.21976,3.39996"
         id="path446"
         style="fill:#ffffff;fill-opacity:1;fill-rule:nonzero;stroke:none" />
    </g>
  </g>
</svg>
